<svg xmlns="http://www.w3.org/2000/svg" width="1200" height="720" viewBox="0 0 1200 720">
<defs><linearGradient id="b" x1="0" y1="0" x2="1" y2="1"><stop stop-color="#13121d"/><stop offset=".55" stop-color="#23223a"/><stop offset="1" stop-color="#10111a"/></linearGradient><linearGradient id="p" x1="0" y1="0" x2="1" y2="1"><stop stop-color="#f4d9ef"/><stop offset="1" stop-color="#9fa7ff"/></linearGradient></defs>
<rect width="1200" height="720" fill="url(#b)"/><circle cx="590" cy="340" r="245" fill="#292a46"/><path d="M455 500 C390 400 405 250 525 190 C650 130 780 205 790 330 C800 450 710 540 590 545 C540 548 495 532 455 500 Z" fill="url(#p)" opacity=".93"/><path d="M500 290 C550 225 650 225 715 290 M505 365 C560 405 650 410 710 360" fill="none" stroke="#24233a" stroke-width="9" stroke-linecap="round"/><path d="M300 555 C470 605 720 620 900 540" fill="none" stroke="#c4c9ff" stroke-opacity=".4" stroke-width="4"/><text x="70" y="105" font-family="Arial" font-size="28" fill="#f3f0ff" letter-spacing="8">CLEAN ANIME FINAL</text><text x="70" y="660" font-family="Arial" font-size="18" fill="#aaa8c5" letter-spacing="4">CLEAR SHAPES • REFINED LINES</text>
</svg>
